<svg xmlns="http://www.w3.org/2000/svg" xmlns:xlink="http://www.w3.org/1999/xlink" width="400" height="570" viewBox="0 0 400 570">
<defs>
</defs>
<g stroke-linejoin="round">
<path d="M158 177 Q138 175 127 198 L108 250 Q106 263 114 277 L126 301 L124 322 Q126 329 131 323 L133 308 L137 325 Q141 332 145 325 L141 306 L149 316 Q155 319 156 313 L145 296 L133 258 L151 221 L176 199 Z" fill="#b8b8b8" stroke="#161d26" stroke-width="3" stroke-linecap="round" stroke-linejoin="round" />
<path d="M130 206 L121 250 Q118 261 125 273 L136 293 L145 296 L133 258 L151 221 Z" fill="#747474" stroke="none" stroke-width="3" stroke-linecap="round" stroke-linejoin="round" />
<path d="M116 257 L125 259 M129 298 L140 304" fill="none" stroke="#747474" stroke-width="2" stroke-linecap="round" stroke-linejoin="round" />
<path d="M153 332 L184 337 L181 390 L162 444 L164 494 L174 509 L152 520 L137 501 L139 439 L147 389 Z" fill="#b8b8b8" stroke="#161d26" stroke-width="3" stroke-linecap="round" stroke-linejoin="round" />
<path d="M171 355 L177 385 L155 444 L155 492 L143 497 L146 438 L155 391 Z" fill="#747474" stroke="none" stroke-width="3" stroke-linecap="round" stroke-linejoin="round" />
<path d="M143 435 L155 429 L164 435 M146 449 L154 451" fill="none" stroke="#747474" stroke-width="2.3" stroke-linecap="round" stroke-linejoin="round" />
<path d="M137 508 Q130 513 132 522 L153 531 L195 531 Q206 530 207 525 L200 520 L161 505 Z" fill="#242f39" stroke="#161d26" stroke-width="3" stroke-linecap="round" stroke-linejoin="round" />
<path d="M142 493 L157 497 L164 507 L190 511 Q200 512 199 520 L181 523 L151 520 L136 513 Z" fill="#b8b8b8" stroke="#161d26" stroke-width="3" stroke-linecap="round" stroke-linejoin="round" />
<path d="M160 507 L170 517 L184 513" fill="none" stroke="#e29392" stroke-width="5" stroke-linecap="round" stroke-linejoin="round" />
<path d="M186 514 L187 520 M177 515 L178 521" fill="none" stroke="#747474" stroke-width="1.6" stroke-linecap="round" stroke-linejoin="round" />
<path d="M139 522 L154 527 L198 527" fill="none" stroke="#768186" stroke-width="2" stroke-linecap="round" stroke-linejoin="round" />
<path d="M192 337 L222 330 L234 376 Q239 394 230 411 L215 440 L217 489 L226 507 L215 520 L196 507 L197 438 L212 394 L198 373 Z" fill="#f3f3f3" stroke="#161d26" stroke-width="3" stroke-linecap="round" stroke-linejoin="round" />
<path d="M213 353 L222 357 L232 388 L225 409 L210 440 L210 489 L218 502 L207 504 L204 491 L204 436 L218 394 Z" fill="#b8b8b8" stroke="none" stroke-width="3" stroke-linecap="round" stroke-linejoin="round" />
<path d="M221 382 L230 389 L225 401 L215 402 L212 395 Z" fill="#ffffff" stroke="none" stroke-width="3" stroke-linecap="round" stroke-linejoin="round" />
<path d="M214 405 L223 409 M204 441 L207 457 M207 474 L209 485" fill="none" stroke="#747474" stroke-width="2" stroke-linecap="round" stroke-linejoin="round" />
<path d="M195 505 L211 502 L230 511 L264 515 Q276 520 269 529 Q249 538 217 532 L191 523 Z" fill="#172530" stroke="#161d26" stroke-width="3" stroke-linecap="round" stroke-linejoin="round" />
<path d="M199 492 L214 493 L226 506 L253 507 Q266 508 264 516 Q264 520 256 522 L236 524 L213 519 L196 514 Z" fill="#f3f3f3" stroke="#161d26" stroke-width="3" stroke-linecap="round" stroke-linejoin="round" />
<path d="M220 507 L250 510 L258 515 L251 519 L227 516 Z" fill="#ffffff" stroke="none" stroke-width="3" stroke-linecap="round" stroke-linejoin="round" />
<path d="M258 510 L256 521 M247 509 L246 522 M236 509 L235 520" fill="none" stroke="#747474" stroke-width="1.8" stroke-linecap="round" stroke-linejoin="round" />
<path d="M211 505 L226 518 L239 510" fill="none" stroke="#e29392" stroke-width="6" stroke-linecap="round" stroke-linejoin="round" />
<path d="M195 523 L220 529 Q248 534 266 526" fill="none" stroke="#86949a" stroke-width="2" stroke-linecap="round" stroke-linejoin="round" />
<path d="M173 157 L197 153 L204 172 Q229 173 235 197 L225 222 L217 258 L220 282 L206 300 L169 292 L160 271 L164 238 L149 211 Q144 193 158 181 L173 174 Z" fill="#f3f3f3" stroke="#161d26" stroke-width="3" stroke-linecap="round" stroke-linejoin="round" />
<path d="M178 171 L190 169 L190 186 L175 192 L163 207 L165 226 L154 210 Q150 195 163 185 Z" fill="#ffffff" stroke="none" stroke-width="3" stroke-linecap="round" stroke-linejoin="round" />
<path d="M215 181 Q231 187 231 199 L220 222 L208 255 L211 280 L199 289 L180 285 L193 273 L198 241 L206 210 Z" fill="#b8b8b8" stroke="none" stroke-width="3" stroke-linecap="round" stroke-linejoin="round" />
<path d="M165 229 L176 232 L175 247 L168 253 Z" fill="#ffffff" stroke="none" stroke-width="3" stroke-linecap="round" stroke-linejoin="round" />
<path d="M170 190 L183 187 L193 192 M190 174 L192 181 M199 194 L210 190" fill="none" stroke="#747474" stroke-width="2.8" stroke-linecap="round" stroke-linejoin="round" />
<path d="M170 205 Q184 210 193 204 M175 220 L187 224 M173 229 L183 233 M178 260 Q184 264 190 259" fill="none" stroke="#747474" stroke-width="2" stroke-linecap="round" stroke-linejoin="round" />
<ellipse cx="192" cy="274" rx="2" ry="2.6" fill="#747474" stroke="none" stroke-width="2"/>
<path d="M161 215 L165 218 M177 244 L182 249" fill="none" stroke="#b8b8b8" stroke-width="2" stroke-linecap="round" stroke-linejoin="round" />
<path d="M184 248 L194 244 M187 242 L190 250 M190 241 L193 248" fill="none" stroke="#747474" stroke-width="1.2" stroke-linecap="round" stroke-linejoin="round" />
<path d="M162 278 Q187 289 217 278 L229 311 L235 348 L226 345 L220 353 L211 349 L201 354 L190 345 L184 318 L179 354 L166 351 L157 356 L148 350 L138 352 L143 315 Z" fill="#364858" stroke="#161d26" stroke-width="3.5" stroke-linecap="round" stroke-linejoin="round" />
<path d="M162 278 Q189 288 217 278 L220 289 Q189 301 155 289 Z" fill="#242735" stroke="#161d26" stroke-width="2" stroke-linecap="round" stroke-linejoin="round" />
<path d="M147 311 L158 298 L171 301 L164 336 L148 341 Z" fill="#607783" stroke="none" stroke-width="3" stroke-linecap="round" stroke-linejoin="round" />
<path d="M195 299 L218 297 L227 333 L214 339 L204 325 Z" fill="#607783" stroke="none" stroke-width="3" stroke-linecap="round" stroke-linejoin="round" />
<path d="M185 297 L190 321 M153 309 L166 307 M202 310 L211 323 M144 343 L159 340 M205 341 L222 337" fill="none" stroke="#202a36" stroke-width="2" stroke-linecap="round" stroke-linejoin="round" />
<path d="M179 291 L195 292 L194 302 L179 300 Z" fill="#e1b866" stroke="#161d26" stroke-width="2" stroke-linecap="round" stroke-linejoin="round" />
<path d="M185 292 L185 300" fill="none" stroke="#161d26" stroke-width="1.5" stroke-linecap="round" stroke-linejoin="round" />
<path d="M150 320 L164 318 L166 333 L151 336 Z" fill="#252e3b" stroke="#161d26" stroke-width="1.5" stroke-linecap="round" stroke-linejoin="round" />
<path d="M154 324 L162 326 M156 322 L159 331" fill="none" stroke="#bec5ad" stroke-width="1.5" stroke-linecap="round" stroke-linejoin="round" />
<path d="M205 336 L218 331 M206 339 L221 335" fill="none" stroke="#e1b866" stroke-width="2.6" stroke-linecap="round" stroke-linejoin="round" />
<path d="M222 186 Q235 187 240 201 L239 234 L245 254 Q249 264 245 274 L235 302 L239 316 L252 328 Q255 335 248 336 L238 329 L246 343 Q247 350 240 348 L229 332 L234 351 Q232 358 226 351 L219 331 L216 313 L218 299 L228 265 L220 241 L213 212 Q209 194 222 186 Z" fill="#f3f3f3" stroke="#161d26" stroke-width="3.5" stroke-linecap="round" stroke-linejoin="round" />
<path d="M225 193 Q233 194 234 205 L232 235 L237 258 L233 270 L225 293 L218 310 L218 300 L228 265 L220 240 L216 211 Z" fill="#ffffff" stroke="none" stroke-width="3" stroke-linecap="round" stroke-linejoin="round" />
<path d="M238 241 L245 258 L242 274 L232 302 L233 316 L245 331 L238 329 L231 320 L227 305 L230 279 L236 265 Z" fill="#b8b8b8" stroke="none" stroke-width="3" stroke-linecap="round" stroke-linejoin="round" />
<path d="M232 257 L243 260 M231 267 L239 269 M225 314 L232 318 M231 321 L238 326" fill="none" stroke="#747474" stroke-width="2" stroke-linecap="round" stroke-linejoin="round" />
<path d="M219 297 L233 300 L231 311 L217 307 Z" fill="#202b34" stroke="#161d26" stroke-width="2" stroke-linecap="round" stroke-linejoin="round" />
<path d="M221 300 L230 302" fill="none" stroke="#7a8a87" stroke-width="1.3" stroke-linecap="round" stroke-linejoin="round" />
<path d="M169 158 Q148 145 139 123 Q124 113 129 97 Q125 69 148 51 Q170 30 205 36 Q239 39 247 67 Q254 89 245 108 L248 121 L231 126 Q224 147 206 161 L190 174 Z" fill="#f3f3f3" stroke="#161d26" stroke-width="3.7" stroke-linecap="round" stroke-linejoin="round" />
<path d="M143 76 Q146 48 178 43 Q211 37 231 58 L232 70 Q192 55 165 72 L152 91 Z" fill="#ffffff" stroke="none" stroke-width="3" stroke-linecap="round" stroke-linejoin="round" />
<path d="M136 106 L149 114 L153 133 L181 155 L200 158 L214 148 L207 162 L190 174 L170 159 L149 142 Z" fill="#b8b8b8" stroke="none" stroke-width="3" stroke-linecap="round" stroke-linejoin="round" />
<path d="M143 93 Q127 87 126 104 Q127 119 143 121 L150 112" fill="#f3f3f3" stroke="#161d26" stroke-width="3" stroke-linecap="round" stroke-linejoin="round" />
<path d="M133 102 L139 107 L135 112" fill="none" stroke="#747474" stroke-width="2" stroke-linecap="round" stroke-linejoin="round" />
<path d="M151 82 L184 78 L206 84 L239 81 L250 90 L246 108 L229 117 L208 108 L197 94 L188 98 L174 114 L155 106 Z" fill="#111c28" stroke="#161d26" stroke-width="3.5" stroke-linecap="round" stroke-linejoin="round" />
<path d="M158 87 L181 84 L193 90 L183 99 L164 97 Z" fill="#2b3e4a" stroke="none" stroke-width="3" stroke-linecap="round" stroke-linejoin="round" />
<path d="M211 87 L239 86 L244 92 L232 99 L219 96 Z" fill="#344853" stroke="none" stroke-width="3" stroke-linecap="round" stroke-linejoin="round" />
<path d="M160 87 L184 85 M216 88 L236 88" fill="none" stroke="#b1e5b6" stroke-width="2.2" stroke-linecap="round" stroke-linejoin="round" />
<path d="M149 88 L135 93" fill="none" stroke="#111c28" stroke-width="5" stroke-linecap="round" stroke-linejoin="round" />
<path d="M227 111 L241 116 L229 121 L223 118 Z" fill="#b8b8b8" stroke="none" stroke-width="3" stroke-linecap="round" stroke-linejoin="round" />
<path d="M188 134 Q209 142 231 128 L221 145 L208 150 L194 145 Z" fill="#293332" stroke="#161d26" stroke-width="2.2" stroke-linecap="round" stroke-linejoin="round" />
<path d="M197 139 L203 140 L203 146 L198 144 Z M207 140 L216 138 L213 145 L208 147 Z M219 136 L226 133 L221 141 Z" fill="#e2dfb7" stroke="none" stroke-width="3" stroke-linecap="round" stroke-linejoin="round" />
<path d="M187 130 L192 131 M216 154 L222 150 M165 120 L174 126" fill="none" stroke="#747474" stroke-width="2" stroke-linecap="round" stroke-linejoin="round" />
<ellipse cx="235" cy="120" rx="1.7" ry="1.2" fill="#747474" stroke="none" stroke-width="2"/>
</g>
</svg>
